<svg id="visual" viewBox="0 0 900 600" width="900" height="600" xmlns="http://www.w3.org/2000/svg" xmlns:xlink="http://www.w3.org/1999/xlink" version="1.1"><path d="M605 0L575.8 20C546.7 40 488.3 80 490.3 120C492.3 160 554.7 200 533.3 240C512 280 407 320 401.2 360C395.3 400 488.7 440 494.8 480C501 520 420 560 379.5 580L339 600L0 600L0 580C0 560 0 520 0 480C0 440 0 400 0 360C0 320 0 280 0 240C0 200 0 160 0 120C0 80 0 40 0 20L0 0Z" fill="#dc3545" stroke-linecap="round" stroke-linejoin="miter"></path></svg>